# xmcd
#
# Track frame offsets:
#	150
#	17901
#	39268
#	53153
#	74238
#	93181
#	119713
#	157004
#	180807
#	211363
#	230969
#
# Disc length: 3592
#
# Revision: 1
# Processed by: cddbd v1.5.1PL0 Copyright (c) Steve Scherf et al.
# Submitted via: CDex 1.50beta10
# Normalized: r0:TRMNUM
#
DISCID=9b0e060b
DTITLE=Stevie Ray Vaughan - Alpine Valley 8-25-90 Music Theater Troy Wis
DYEAR=1900
DGENRE=Blues
TTITLE0=Tightrope - fades in
TTITLE1=The Things That I Used To Do
TTITLE2=Let Me Love You Baby
TTITLE3=Leave My Little Girl Alone
TTITLE4=Look At Little Sister
TTITLE5=Wall Of Denial
TTITLE6=Riviera Paradise
TTITLE7=Superstition
TTITLE8=Couldn't Stand The Weather
TTITLE9=Crossfire
TTITLE10=Voodoo Chile
EXTD=
EXTT0=
EXTT1=
EXTT2=
EXTT3=
EXTT4=
EXTT5=
EXTT6=
EXTT7=
EXTT8=
EXTT9=
EXTT10=
PLAYORDER=
